PathFileType	4	(X/Y/Z)	39_2_24_p0_0-904.trc
DataRate	CameraRate	NumFrames	NumMarkers	Units	OrigDataRate	OrigDataStartFrame	OrigNumFrames
59.0	59.0	5	27	m	59.0	113	905
Frame#	Time	RHip			RKnee			RAnkle			RBigToe			RSmallToe			RHeel			LHip			LKnee			LAnkle			LBigToe			LSmallToe			LHeel			Neck			Head			Nose			RShoulder			RElbow			RWrist			RThumb			RIndex			RPinky			LShoulder			LElbow			LWrist			LThumb			LIndex			LPinky			
		X1	Y1	Z1	X2	Y2	Z2	X3	Y3	Z3	X4	Y4	Z4	X5	Y5	Z5	X6	Y6	Z6	X7	Y7	Z7	X8	Y8	Z8	X9	Y9	Z9	X10	Y10	Z10	X11	Y11	Z11	X12	Y12	Z12	X13	Y13	Z13	X14	Y14	Z14	X15	Y15	Z15	X16	Y16	Z16	X17	Y17	Z17	X18	Y18	Z18	X19	Y19	Z19	X20	Y20	Z20	X21	Y21	Z21	X22	Y22	Z22	X23	Y23	Z23	X24	Y24	Z24	X25	Y25	Z25	X26	Y26	Z26	X27	Y27	Z27	
113	1.9152542372881356	0.32635136281593563	0.5978663436681597	0.5646099106932004	0.2576919458833043	0.6940495216919561	0.9438505241626728	0.23653028091800082	0.7968706969577433	1.3095678309573562	0.22406549248880672	0.6978373715082364	1.3722722115442214	0.27886654927260074	0.7045498543797915	1.366114301078847	0.2094855236508609	0.8849124074170516	1.3721881500456423	0.10519847401109589	0.6187965485146767	0.5727832763180885	0.10579155883464317	0.7073024106400542	0.9426811882927443	0.0380718005275064	0.8179830949148217	1.3347452071533503	0.06168114503793144	0.6397627869681571	1.3286967923352127	0.00799473231935937	0.6804795641787476	1.3394434863071283	0.04439553252593182	0.8647164846399606	1.3755360537234942	0.1712829022122818	0.5865897863101327	0.000761687385434939	0.16015250678735835	0.5415282598473625	-0.2383537087015484	0.1829035266307474	0.48316178545114313	-0.09966421981194858	0.3474454800680533	0.6069463907262452	0.05828837431202634	0.41613379386577054	0.6361055844153133	0.31118563148958134	0.4126941078271969	0.5426400128221764	0.5579719949954741	0.35302266033743657	0.494345435833111	0.6537480913014531	0.3693199075251512	0.5044919070099148	0.6717081937513734	0.4033915796629295	0.550452156295687	0.6721561717875107	0.028770898567866913	0.5873973159230436	0.09438265786947327	0.0030126442239366237	0.5848970711007428	0.3724119732672086	0.0023230964737160752	0.5341750821753734	0.6175813382320985	0.07325876030212418	0.5162405084026509	0.7030894239657893	0.06327228362997354	0.4892553532337208	0.7047691620071344	-0.010911558964079597	0.5170383454655157	0.7149923112119217
114	1.9322033898305084	0.3263225640365965	0.5977068142076155	0.5646358671213374	0.24850670421584298	0.7067271330505671	0.9482546648200953	0.23666220022982518	0.7967830645012757	1.3095855601336426	0.22115802841624274	0.684438219123116	1.366121393440981	0.2842165161012649	0.6864541239576091	1.3618291814223518	0.2082741087060078	0.8857472643908866	1.377769736569064	0.1045510863413508	0.6185811491167533	0.5762528883565566	0.10574780038561718	0.707319264162955	0.9426273664768215	0.03813445079041408	0.8179709199099146	1.3347242942339186	0.06188540025816687	0.6393399882896795	1.3285448432882714	0.00805286846308055	0.6804429183494055	1.3394266468389673	0.04445793069484304	0.8651780387435088	1.3757016342024886	0.17127342784147784	0.5866645543141731	0.0007616600330245889	0.16000534352324286	0.5406291576770196	-0.23858349940029583	0.18283430443241377	0.48344748939253945	-0.09964487305249506	0.3476014683462908	0.6084518820216803	0.06202476292485468	0.41612179192828097	0.6356764380703815	0.3154245404051271	0.4127012675768779	0.5418964752909113	0.5616628210387128	0.3530387439264553	0.4944712168501227	0.6539871783804801	0.36865257523790534	0.5049034291388566	0.6757082836302609	0.4033305570093312	0.5504339740490513	0.6722543590932183	0.02832702075278172	0.5875733708494273	0.09743101773813961	0.0015046741769296256	0.5732376826709773	0.3748774781669798	0.00808902022790555	0.5212366192205581	0.6145808041772747	0.07344640311551388	0.5160978298670398	0.7031411566671204	0.06377620044407328	0.490657987363783	0.7088110990177441	-0.006833525086580665	0.4920364694242748	0.7083765825157474
115	1.9491525423728813	0.3220817252307659	0.6122313699935781	0.5677143108038568	0.2516057651012232	0.7206248524528787	0.9527612097474757	0.2366550483358303	0.7967616508774891	1.309723925267665	0.22400880665038658	0.697231846672388	1.37249680003034	0.2788439434714837	0.7021907252082048	1.3696384172800518	0.20829097956783543	0.8856751153177211	1.3778928552523428	0.1054686884218692	0.6186215721406979	0.572503826294186	0.10574988626645435	0.7072770378006291	0.9428382988937174	0.038126138829799934	0.817861780393432	1.334659451707612	0.06355051776691924	0.6532972652162794	1.3350881947350028	0.008216402768280938	0.6801792528923741	1.3393417229564226	0.04431758233223176	0.8647514971429774	1.375700703387391	0.17125741909506598	0.5868589305623018	0.0008231363014200642	0.15535268820511214	0.5540723387759123	-0.2359331543744722	0.18281973361406995	0.48374553976177653	-0.09961937731689947	0.3475768418108462	0.6084744701657485	0.0620480531672405	0.41582436109812515	0.6378185216706652	0.31891444727937684	0.41268950365641754	0.5417602535327151	0.5617443828667471	0.3573982929695375	0.48060054487528087	0.6506103633828322	0.36940193802894894	0.48010377295058965	0.669324918855897	0.4034270098759208	0.5506781582400843	0.6724653270090025	0.028255256489568097	0.5878493541800159	0.09749525856591988	0.003339315114762083	0.5853124424417008	0.37711315511653876	0.010005400386569932	0.533841197592939	0.6177328371492093	0.0736693384940918	0.5151791439791094	0.7067198157688885	0.06395188973398983	0.48960925399089716	0.7120242344199404	-0.006821650233109754	0.4914627843209762	0.7082525887522361
116	1.9661016949152543	0.3220623264536983	0.6123839457793554	0.5678665986363283	0.25358899954144937	0.6918726565543193	0.9435366070499713	0.23684952333071727	0.7954028526279661	1.3133739512467466	0.2208871764870739	0.683999538314827	1.366616122942417	0.27841755827325104	0.702129985809016	1.369880059194188	0.20985933826332873	0.8835296517822843	1.3763104314527177	0.10087877428286623	0.6446557288383046	0.5781622271122342	0.10576147834609556	0.7074007249189941	0.9427875039502674	0.038189251996830806	0.8177380500335897	1.33461101762203	0.061734698172722625	0.6392686089909227	1.3284450373181924	0.00929209297425459	0.6794964581532227	1.335346738593204	0.04439876557952404	0.8645045232200027	1.3755016627470211	0.17122325444308997	0.5870649126170369	0.0008345698489025191	0.15538779735180316	0.553981928156406	-0.23599952750607278	0.18282553272591434	0.4837795964660157	-0.09955679100206136	0.34758019385132133	0.6085280464852703	0.062045486995630776	0.4158238960343668	0.6381017196334527	0.31909211749746486	0.41266089154109425	0.5415604036186232	0.5618973660513024	0.35760997232646174	0.4798604111358897	0.654195445135162	0.37290212079863266	0.4912535935462154	0.67240512950975	0.4079958815952345	0.5371959598820499	0.6724530863281866	0.02821206630155157	0.5879507847946702	0.09749857259155234	0.0030749467811404052	0.5860960364676137	0.3767485678395553	0.010244851863648976	0.5338855789619055	0.6175886291478284	0.07893884474363677	0.5027962406697681	0.7034031869917035	0.06422864085435241	0.4895155983699396	0.7119186514893882	-0.006309829900158908	0.49107175217643373	0.7079437398896868
117	1.9830508474576272	0.32205622261210853	0.6117716365331078	0.5719348363824116	0.2525947954289396	0.692402831324382	0.9478886790657464	0.2399800591402411	0.8101689650142444	1.3197913757681181	0.22385767515818938	0.6973878881143251	1.3728290220701027	0.27839137825810617	0.7021556488599076	1.3699003157517908	0.21308176529552322	0.8990673118747327	1.3833053714031456	0.10068087317719374	0.644968031796411	0.5783393501883523	0.10458018461268076	0.7079758854459165	0.9468018081618526	0.037680173608597926	0.8152581422748956	1.3287449609577073	0.0617200470258498	0.639490830798092	1.3285778800548664	0.007865593726956914	0.6806166758758573	1.3394319085591324	0.04434826559735003	0.8641074640239643	1.3753081416863746	0.17358827406000907	0.5990998383219122	0.0012193136580818372	0.15567172691614706	0.5526832741306839	-0.2426027333994249	0.17802581644158308	0.49610800799637733	-0.09980680105686479	0.34750891367287795	0.6087801017706811	0.0620299010765429	0.4157513714050493	0.6377971805061428	0.3190309236503785	0.41260560544466107	0.54135085119068	0.5619981397165269	0.35757163348600024	0.4799246830161751	0.6543933300597058	0.36957400473840385	0.48009806105085484	0.6695646996061793	0.40389324034429475	0.5500032256616701	0.6759600942303621	0.028190347017135	0.588033148272561	0.09751043619656315	0.0031414332872687373	0.5857787727853809	0.3769505062060169	0.02012339876128461	0.5233410070044007	0.6114294500159526	0.07906013447605596	0.5025421752832431	0.7032487253164329	0.06427365191497446	0.4900155377025343	0.7085265265278615	-0.0006001154023067512	0.4788643637985184	0.7044633338390429
